<svg width="1861" height="382" viewBox="0 0 1861 382" fill="none" xmlns="http://www.w3.org/2000/svg">
<path d="M580.2 261.44C581.32 263.867 581.88 266.293 581.88 268.72C581.88 273.013 580.107 276.653 576.56 279.64C573.2 282.627 569.28 284.12 564.8 284.12C561.813 284.12 559.013 283.373 556.4 281.88C553.787 280.2 551.733 277.68 550.24 274.32L533.44 236.8H434.88L418.08 274.32C416.587 277.68 414.533 280.2 411.92 281.88C409.307 283.373 406.413 284.12 403.24 284.12C398.947 284.12 395.027 282.627 391.48 279.64C387.933 276.653 386.16 273.013 386.16 268.72C386.16 266.293 386.72 263.867 387.84 261.44L465.12 95.4C466.8 91.6667 469.32 88.8667 472.68 87C476.227 84.9467 479.96 83.92 483.88 83.92C487.8 83.92 491.44 84.9467 494.8 87C498.347 88.8667 500.96 91.6667 502.64 95.4L580.2 261.44ZM521.12 208.8L484.16 125.64L447.2 208.8H521.12ZM634.013 284.68C628.599 284.68 624.213 283 620.853 279.64C617.679 276.28 616.093 271.893 616.093 266.48V102.12C616.093 96.7067 617.679 92.4133 620.853 89.24C624.213 85.88 628.599 84.2 634.013 84.2C639.613 84.2 643.999 85.88 647.173 89.24C650.533 92.4133 652.213 96.7067 652.213 102.12V266.48C652.213 271.893 650.533 276.28 647.173 279.64C643.999 283 639.613 284.68 634.013 284.68ZM851.363 84.2C856.589 84.2 860.696 85.88 863.683 89.24C866.856 92.4133 868.443 96.7067 868.443 102.12V266.48C868.443 271.893 866.856 276.28 863.683 279.64C860.509 283 856.403 284.68 851.363 284.68C845.389 284.68 840.816 282.533 837.643 278.24L735.443 145.24V266.48C735.443 271.893 733.949 276.28 730.963 279.64C727.976 283 723.869 284.68 718.643 284.68C713.416 284.68 709.309 283 706.323 279.64C703.336 276.28 701.843 271.893 701.843 266.48V102.12C701.843 96.7067 703.429 92.4133 706.603 89.24C709.776 85.88 713.976 84.2 719.203 84.2C724.989 84.2 729.469 86.3467 732.643 90.64L834.563 223.08V102.12C834.563 96.7067 836.056 92.4133 839.043 89.24C842.216 85.88 846.323 84.2 851.363 84.2ZM982.702 284.4C977.102 284.4 972.622 282.813 969.262 279.64C966.089 276.28 964.502 271.893 964.502 266.48V115.28H913.542C902.342 115.28 896.742 110.333 896.742 100.44C896.742 90.5467 902.342 85.6 913.542 85.6H1051.58C1062.78 85.6 1068.38 90.5467 1068.38 100.44C1068.38 110.333 1062.78 115.28 1051.58 115.28H1000.62V266.48C1000.62 271.893 998.942 276.28 995.582 279.64C992.409 282.813 988.116 284.4 982.702 284.4ZM1114.1 283C1108.69 283 1104.39 281.507 1101.22 278.52C1098.23 275.533 1096.74 271.333 1096.74 265.92V102.68C1096.74 97.2667 1098.23 93.0667 1101.22 90.08C1104.39 87.0933 1108.69 85.6 1114.1 85.6H1215.18C1220.59 85.6 1224.79 86.8133 1227.78 89.24C1230.77 91.6667 1232.26 95.12 1232.26 99.6C1232.26 104.267 1230.77 107.907 1227.78 110.52C1224.79 112.947 1220.59 114.16 1215.18 114.16H1132.02V168.48H1209.58C1214.99 168.48 1219.19 169.693 1222.18 172.12C1225.17 174.547 1226.66 178.093 1226.66 182.76C1226.66 187.24 1225.17 190.693 1222.18 193.12C1219.19 195.547 1214.99 196.76 1209.58 196.76H1132.02V254.44H1215.18C1220.59 254.44 1224.79 255.747 1227.78 258.36C1230.77 260.787 1232.26 264.333 1232.26 269C1232.26 273.48 1230.77 276.933 1227.78 279.36C1224.79 281.787 1220.59 283 1215.18 283H1114.1ZM1418.14 84.2C1423.37 84.2 1427.48 85.88 1430.46 89.24C1433.64 92.4133 1435.22 96.7067 1435.22 102.12V266.48C1435.22 271.893 1433.64 276.28 1430.46 279.64C1427.29 283 1423.18 284.68 1418.14 284.68C1412.17 284.68 1407.6 282.533 1404.42 278.24L1302.22 145.24V266.48C1302.22 271.893 1300.73 276.28 1297.74 279.64C1294.76 283 1290.65 284.68 1285.42 284.68C1280.2 284.68 1276.09 283 1273.1 279.64C1270.12 276.28 1268.62 271.893 1268.62 266.48V102.12C1268.62 96.7067 1270.21 92.4133 1273.38 89.24C1276.56 85.88 1280.76 84.2 1285.98 84.2C1291.77 84.2 1296.25 86.3467 1299.42 90.64L1401.34 223.08V102.12C1401.34 96.7067 1402.84 92.4133 1405.82 89.24C1409 85.88 1413.1 84.2 1418.14 84.2ZM1502.16 283C1496.75 283 1492.46 281.507 1489.28 278.52C1486.3 275.533 1484.8 271.333 1484.8 265.92V102.68C1484.8 97.2667 1486.3 93.0667 1489.28 90.08C1492.46 87.0933 1496.75 85.6 1502.16 85.6H1603.24C1608.66 85.6 1612.86 86.8133 1615.84 89.24C1618.83 91.6667 1620.32 95.12 1620.32 99.6C1620.32 104.267 1618.83 107.907 1615.84 110.52C1612.86 112.947 1608.66 114.16 1603.24 114.16H1520.08V168.48H1597.64C1603.06 168.48 1607.26 169.693 1610.24 172.12C1613.23 174.547 1614.72 178.093 1614.72 182.76C1614.72 187.24 1613.23 190.693 1610.24 193.12C1607.26 195.547 1603.06 196.76 1597.64 196.76H1520.08V254.44H1603.24C1608.66 254.44 1612.86 255.747 1615.84 258.36C1618.83 260.787 1620.32 264.333 1620.32 269C1620.32 273.48 1618.83 276.933 1615.84 279.36C1612.86 281.787 1608.66 283 1603.24 283H1502.16ZM1744.06 285.52C1724.83 285.52 1708.13 281.413 1693.94 273.2C1679.94 264.987 1669.11 253.227 1661.46 237.92C1653.81 222.613 1649.98 204.693 1649.98 184.16C1649.98 163.627 1653.71 145.8 1661.18 130.68C1668.83 115.373 1679.75 103.613 1693.94 95.4C1708.13 87.1867 1724.83 83.08 1744.06 83.08C1763.29 83.08 1779.9 87.1867 1793.9 95.4C1808.09 103.613 1818.91 115.373 1826.38 130.68C1834.03 145.8 1837.86 163.627 1837.86 184.16C1837.86 204.693 1834.03 222.613 1826.38 237.92C1818.73 253.227 1807.81 264.987 1793.62 273.2C1779.62 281.413 1763.1 285.52 1744.06 285.52ZM1744.06 256.68C1762.17 256.68 1776.26 250.427 1786.34 237.92C1796.61 225.413 1801.74 207.493 1801.74 184.16C1801.74 160.827 1796.61 143 1786.34 130.68C1776.26 118.173 1762.17 111.92 1744.06 111.92C1725.77 111.92 1711.49 118.173 1701.22 130.68C1691.14 143 1686.1 160.827 1686.1 184.16C1686.1 207.493 1691.14 225.413 1701.22 237.92C1711.49 250.427 1725.77 256.68 1744.06 256.68Z" fill="#5071B6"/>
<rect y="3" width="362" height="362" rx="35" fill="#5071B6"/>
<path d="M281.072 57C289.077 57 295.506 59.6015 300.358 64.8045C305.453 69.7709 308 76.2747 308 84.3157V285.813C308 293.617 305.695 299.766 301.086 304.26C296.477 308.753 290.412 311 282.891 311C275.613 311 269.67 308.753 265.06 304.26C260.451 299.766 258.146 293.617 258.146 285.813V160.587L206.473 255.304C203.076 261.453 199.316 265.947 195.192 268.785C191.31 271.623 186.58 273.042 181 273.042C175.663 273.042 170.932 271.623 166.808 268.785C162.684 265.947 158.924 261.453 155.527 255.304L103.854 162.36V285.813C103.854 293.381 101.549 299.53 96.9398 304.26C92.3305 308.753 86.2655 311 78.745 311C71.467 311 65.5234 308.753 60.914 304.26C56.3047 299.766 54 293.617 54 285.813V84.3157C54 76.2747 56.426 69.7709 61.2779 64.8045C66.3725 59.6015 72.9226 57 80.9284 57C92.5731 57 101.428 63.0307 107.493 75.0922L181.364 211.67L254.871 75.0922C261.421 63.0307 270.155 57 281.072 57Z" fill="white"/>
</svg>
